<svg width="26" height="30" viewBox="0 0 26 30" fill="none" xmlns="http://www.w3.org/2000/svg">
<g clip-path="url(#clip0)">
<path d="M15.2114 12.9848V12.9094C15.2114 10.8854 15.2114 8.84984 15.2114 6.83167C15.2114 6.51271 14.9969 6.5417 14.7881 6.5417C9.99396 6.5417 5.19984 6.5417 0.405714 6.5417C0.0577533 6.5417 -0.0234375 6.65769 -0.0234375 6.98245C-0.0234375 9.13401 -0.0234375 11.2914 -0.0234375 13.4429H0.127345H14.9099C15.0085 13.4429 15.1476 13.5067 15.1882 13.3327C15.2094 13.3053 15.2209 13.2717 15.2209 13.237C15.2209 13.2024 15.2094 13.1688 15.1882 13.1414L15.2114 12.9848ZM3.39237 10.4853C3.1488 10.4853 3.03862 10.5548 3.05601 10.81C3.07341 11.0652 3.05601 11.39 3.05601 11.6509C3.05601 11.8191 3.11981 12.0627 2.84144 12.0453C2.56307 12.0279 2.2615 12.2309 2.19191 11.7669V11.5291C2.1455 11.4111 2.12379 11.2848 2.12812 11.158C2.12379 11.2848 2.1455 11.4111 2.19191 11.5291C2.19191 11.39 2.22091 11.2508 2.22091 11.1116C2.22091 10.1663 2.22091 9.221 2.22091 8.27571C2.22091 8.07273 2.22091 7.93354 2.49928 7.93934C3.07921 7.93934 3.65914 7.93934 4.23908 7.93934C4.39743 7.93906 4.55417 7.9712 4.69963 8.03379C4.84508 8.09639 4.97618 8.1881 5.08485 8.30328C5.19352 8.41847 5.27744 8.55469 5.33146 8.70354C5.38548 8.8524 5.40845 9.01074 5.39895 9.1688C5.4144 9.33061 5.39566 9.49386 5.34396 9.64796C5.29227 9.80206 5.20875 9.94358 5.09885 10.0633C4.98894 10.1831 4.85509 10.2784 4.70597 10.3431C4.55686 10.4078 4.39581 10.4404 4.23328 10.4389C3.95421 10.4717 3.67337 10.4872 3.39237 10.4853ZM2.14552 10.781C2.14552 10.9028 2.14552 11.0304 2.14552 11.1522C2.13392 11.0188 2.14552 10.9028 2.14552 10.781ZM2.14552 7.93354C2.20794 7.88026 2.2784 7.8372 2.35429 7.80596C2.2784 7.8372 2.20794 7.88026 2.14552 7.93354ZM6.28045 12.0859C6.21852 12.127 6.14598 12.1491 6.07167 12.1497C6.14598 12.1491 6.21852 12.127 6.28045 12.0859L5.99628 11.9467C6.00111 11.9429 6.00501 11.938 6.00769 11.9325C6.01037 11.927 6.01176 11.9209 6.01176 11.9148C6.01176 11.9087 6.01037 11.9026 6.00769 11.8971C6.00501 11.8915 6.00111 11.8867 5.99628 11.8829C6.07747 11.7553 6.03688 11.6103 6.04267 11.4711C6.04267 10.3113 6.04267 9.12241 6.04267 7.94514H7.88687C8.11203 7.94469 8.33417 7.9969 8.53556 8.09759C8.73695 8.19829 8.912 8.34468 9.04673 8.52508C9.32686 8.95411 9.48178 9.45277 9.49408 9.96501C9.50637 10.4773 9.37555 10.9828 9.11633 11.4247C8.95452 11.62 8.75511 11.7806 8.52995 11.8972C8.30478 12.0138 8.05847 12.0838 7.80567 12.1033L6.28045 12.0859ZM12.7583 8.66426C12.3002 8.66426 11.842 8.66426 11.3839 8.66426C11.1403 8.66426 11.0475 8.72805 11.0475 8.98902C11.0475 9.56896 11.0475 9.56896 11.6274 9.56896C11.9174 9.56896 12.2074 9.56896 12.5031 9.56896C12.7989 9.56896 12.7699 9.76614 12.7699 9.95752C12.7699 10.1489 12.7699 10.3171 12.5147 10.3055C12.1204 10.3055 11.7202 10.3055 11.3549 10.3055C11.1403 10.3055 11.0591 10.3867 11.0649 10.5954C11.0649 10.9666 11.0649 11.3378 11.0649 11.7031C11.0649 12.0685 10.9547 12.0917 10.6648 12.0743C10.3748 12.0569 10.1892 12.1033 10.2124 11.7205C10.2414 11.1406 10.2124 10.5606 10.2124 9.98071C10.2124 9.40078 10.2124 8.82084 10.2124 8.24091C10.2124 8.00894 10.282 7.93354 10.514 7.93354C11.2679 7.93354 12.016 7.93354 12.7699 7.93354C13.1121 7.93354 13.0367 8.15972 13.0541 8.3453C13.0715 8.53088 12.9729 8.69906 12.7583 8.66426Z" fill="#F86103"/>
<path d="M7.98557 8.69905C7.6957 8.65627 7.40285 8.63688 7.10987 8.64106C6.91269 8.64106 6.88949 8.76285 6.89529 8.91943V9.98651V10.52C6.89529 11.4073 6.89529 11.4073 7.79419 11.3088C7.98879 11.3152 8.17823 11.2454 8.32225 11.1144C8.46627 10.9834 8.55353 10.8014 8.5655 10.607C8.62926 10.19 8.62926 9.76564 8.5655 9.34858C8.55043 9.19273 8.48609 9.04574 8.3818 8.92894C8.27752 8.81214 8.13873 8.73162 7.98557 8.69905Z" fill="#F86103"/>
<path d="M4.27359 8.75704C3.92907 8.62108 3.55323 8.58491 3.18911 8.65265C3.08472 8.65265 3.06152 8.76284 3.06152 8.85563V9.27898C3.06152 9.78932 3.06152 9.78932 3.57766 9.80092C3.7566 9.79338 3.93483 9.77401 4.1112 9.74293C4.21202 9.72383 4.30409 9.67302 4.37399 9.5979C4.44389 9.52279 4.48795 9.4273 4.49976 9.32538C4.52852 9.21892 4.52203 9.10602 4.48126 9.00357C4.44048 8.90111 4.36762 8.81462 4.27359 8.75704Z" fill="#F86103"/>
<path d="M13.7328 18.4188H18.958V25.6157H20.7442L16.3657 30L12.0684 25.7027H13.9647L13.7328 18.4188Z" fill="#F86103"/>
<path d="M13.0368 29.1823H5.61359C4.94854 29.1808 4.31098 28.9168 3.83963 28.4476C3.36828 27.9784 3.10126 27.3421 3.09668 26.677V14.1852H4.25655V26.677C4.25655 27.04 4.40074 27.3881 4.65742 27.6448C4.91409 27.9015 5.26221 28.0457 5.62519 28.0457H13.0484L13.0368 29.1823Z" fill="#4A4A4A"/>
<path d="M23.1971 29.1823H19.8567V28.0225H23.1971C23.3203 28.0229 23.4424 27.9985 23.556 27.9507C23.6696 27.9028 23.7724 27.8326 23.8582 27.7441C23.9455 27.6565 24.0146 27.5525 24.0614 27.438C24.1082 27.3235 24.1318 27.2008 24.1308 27.0772C24.1308 24.5081 24.0844 19.538 24.0786 15.1595C24.0786 12.6948 24.0786 10.752 24.0786 9.36017C24.0786 8.57146 24.0786 7.96253 24.0786 7.55078C24.0786 7.35746 24.0786 7.20668 24.0786 7.09843L18.401 1.42087C18.2237 1.25012 17.9861 1.15633 17.7399 1.1599H5.18432C4.93761 1.16137 4.70124 1.25924 4.5257 1.43262C4.35017 1.60599 4.24937 1.84112 4.24483 2.0878V5.79937H3.08496V2.0878C3.08496 1.81265 3.13934 1.54021 3.24498 1.28615C3.35063 1.0321 3.50545 0.801427 3.70055 0.607408C3.89564 0.413389 4.12717 0.259848 4.38181 0.155612C4.63645 0.051377 4.90918 -0.00149638 5.18432 3.22216e-05H17.7399C18.0135 -0.00115054 18.2847 0.0520738 18.5375 0.156611C18.7904 0.261148 19.02 0.414912 19.2129 0.608963L25.1109 6.50689L25.2211 6.84326V7.17962C25.1631 8.43808 25.1689 15.9134 25.2211 27.083C25.2258 27.6282 25.0165 28.1536 24.638 28.5462C24.2595 28.9387 23.7422 29.1672 23.1971 29.1823Z" fill="#4A4A4A"/>
<path d="M24.7048 7.33619H17.792V0.574158H18.9403V6.18792H24.7048V7.33619Z" fill="#4A4A4A"/>
</g>
<defs>
<clipPath id="clip0">
<rect width="25.2677" height="30" fill="white"/>
</clipPath>
</defs>
</svg>
