<svg width="20" height="20" viewBox="0 0 20 20" fill="none" xmlns="http://www.w3.org/2000/svg">
<path d="M19.9726 7.66845C19.9069 7.46731 19.7345 7.32364 19.5251 7.2908L13.2857 6.40414L10.4779 0.759894C10.3835 0.571069 10.1906 0.452026 9.98124 0.452026C9.77189 0.452026 9.57896 0.571069 9.48454 0.763999L6.71373 6.42466L0.474278 7.35237C0.264928 7.38521 0.0925219 7.52888 0.0268434 7.73002C-0.0388351 7.93116 0.0186336 8.15283 0.170515 8.2965L4.69823 12.6846L3.65147 18.8995C3.61453 19.1088 3.70073 19.3182 3.87314 19.4413C3.96755 19.5111 4.08249 19.548 4.19743 19.548C4.28773 19.548 4.37394 19.5275 4.45604 19.4824L10.0264 16.5309L15.6132 19.4495C15.6953 19.4906 15.7815 19.5111 15.8677 19.5111C16.1714 19.5111 16.4218 19.2607 16.4218 18.9569C16.4218 18.9118 16.4177 18.8707 16.4054 18.8297L15.3258 12.6518L19.8248 8.23903C19.9849 8.09125 20.0383 7.86959 19.9726 7.66845ZM14.3489 12.0648C14.2175 12.1921 14.16 12.3768 14.1929 12.5574L15.1329 17.9471L10.2809 15.4144C10.1208 15.3282 9.92788 15.3323 9.76368 15.4144L4.9281 17.9759L5.83528 12.5779C5.86402 12.3973 5.80655 12.2167 5.67519 12.0894L1.7509 8.28008L7.16527 7.47552C7.34589 7.44678 7.50188 7.33595 7.57987 7.17176L9.98534 2.25818L12.4237 7.15944C12.5058 7.32364 12.6617 7.43447 12.8424 7.4632L18.2608 8.23493L14.3489 12.0648Z" fill="#222222"/>
</svg>
